<svg width="1024" height="1024" viewBox="0 0 1024 1024" fill="none" xmlns="http://www.w3.org/2000/svg">
<path d="M571 489.378V297C571 274.909 588.909 257 611 257H779C801.091 257 819 274.909 819 297V489.378C819 501.672 813.346 513.283 803.668 520.865L719.669 586.674C705.181 598.024 684.819 598.024 670.331 586.674L586.332 520.865C576.654 513.283 571 501.672 571 489.378Z" fill="url(#paint0_radial_196_2)"/>
<path d="M281.418 256C281.418 244.954 290.372 236 301.418 236C312.464 236 321.418 244.954 321.418 256V412H377.465C396.662 412 414.702 421.186 425.992 436.713L519.069 564.713C534.367 585.751 534.367 614.249 519.069 635.287L425.992 763.287C414.702 778.814 396.663 788 377.465 788H245C211.863 788 185 761.137 185 728V472C185 438.863 211.863 412 245 412H281.418V256ZM625 716C625 677.34 656.34 646 695 646C706.046 646 715 654.954 715 666C715 677.046 706.046 686 695 686C678.431 686 665 699.431 665 716C665 732.569 678.431 746 695 746C711.569 746 725 732.569 725 716C725 704.954 733.954 696 745 696C756.046 696 765 704.954 765 716C765 754.66 733.66 786 695 786C656.34 786 625 754.66 625 716ZM799 297C799 285.954 790.046 277 779 277H611C599.954 277 591 285.954 591 297V489.378C591 495.525 593.827 501.33 598.666 505.121L682.666 570.93C689.91 576.605 700.09 576.605 707.334 570.93L791.334 505.121C796.173 501.33 799 495.525 799 489.378V297ZM225 728C225 739.046 233.954 748 245 748H377.465C383.864 748 389.877 744.938 393.641 739.763L486.718 611.763C491.817 604.75 491.817 595.25 486.718 588.237L393.641 460.237C389.877 455.062 383.864 452 377.465 452H245C233.954 452 225 460.954 225 472V728ZM839 489.378C839 507.819 830.519 525.235 816.003 536.608L732.003 602.418C710.272 619.443 679.728 619.443 657.997 602.418L573.997 536.608C559.481 525.235 551 507.819 551 489.378V297C551 263.863 577.863 237 611 237H779C812.137 237 839 263.863 839 297V489.378Z" fill="url(#paint1_radial_196_2)"/>
<defs>
<radialGradient id="paint0_radial_196_2" cx="0" cy="0" r="1" gradientTransform="matrix(260.058 252.754 -303.107 304.403 251.942 515.246)" gradientUnits="userSpaceOnUse">
<stop offset="0.00480769" stop-color="#BDCCFE"/>
<stop offset="1" stop-color="white"/>
</radialGradient>
<radialGradient id="paint1_radial_196_2" cx="0" cy="0" r="1" gradientUnits="userSpaceOnUse" gradientTransform="translate(235 515.5) rotate(44.5308) scale(388.568 460.369)">
<stop offset="0.00480769" stop-color="#BDCCFE"/>
<stop offset="1" stop-color="white"/>
</radialGradient>
</defs>
</svg>
