<svg width="1024" height="1024" viewBox="0 0 1024 1024" fill="none" xmlns="http://www.w3.org/2000/svg">
<path d="M573 489.378V297C573 274.909 590.909 257 613 257H781C803.091 257 821 274.909 821 297V489.378C821 501.672 815.346 513.283 805.668 520.865L721.669 586.674C707.181 598.024 686.819 598.024 672.331 586.674L588.332 520.865C578.654 513.283 573 501.672 573 489.378Z" fill="white" stroke="white" stroke-width="40"/>
<circle cx="697" cy="716" r="50" fill="white"/>
<path d="M303.418 432H247C224.909 432 207 449.909 207 472V728C207 750.091 224.909 768 247 768H303.418H379.465C392.264 768 404.289 761.876 411.816 751.525L504.894 623.525C515.092 609.5 515.092 590.5 504.894 576.475L411.816 448.475C404.289 438.124 392.264 432 379.465 432H303.418ZM303.418 432V256" stroke="white" stroke-width="40"/>
</svg>
